<svg xmlns="http://www.w3.org/2000/svg" viewBox="0 0 80 48" width="80" height="48">
  <path d="M22.7 20.1c0 .8.1 1.4.2 1.8.2.4.4.8.8 1.3.1.2.2.4.2.5 0 .2-.1.4-.4.7l-1.3.9c-.2.1-.4.2-.5.2-.2 0-.4-.1-.6-.3-.3-.3-.5-.6-.7-1-.2-.4-.4-.8-.6-1.4-1.5 1.8-3.4 2.7-5.7 2.7-1.6 0-2.9-.5-3.8-1.4-.9-.9-1.4-2.1-1.4-3.6 0-1.6.6-2.9 1.7-3.8 1.1-.9 2.6-1.4 4.4-1.4.6 0 1.2.1 1.9.2.7.1 1.4.3 2.1.5v-1.3c0-1.4-.3-2.4-.9-2.9-.6-.6-1.6-.8-3-.8-.6 0-1.3.1-2 .3-.7.2-1.3.4-2 .7-.3.1-.5.2-.6.2s-.3 0-.3-.2v-1.4c0-.3 0-.4.2-.5.1-.1.4-.3.7-.4.7-.4 1.5-.6 2.4-.8.9-.2 1.9-.3 2.9-.3 2.2 0 3.8.5 4.9 1.5 1 1 1.6 2.5 1.6 4.5v5.9h.1zm-7.9 3c.6 0 1.2-.1 1.8-.3.7-.2 1.2-.6 1.7-1.2.3-.4.5-.8.6-1.3.1-.5.2-1.1.2-1.8v-.9c-.5-.1-1.1-.2-1.7-.3-.6-.1-1.1-.1-1.6-.1-1.2 0-2 .2-2.6.7-.6.5-.9 1.2-.9 2.1 0 .8.2 1.5.6 1.9.5.6 1.1.9 1.9.9v.3zM34.3 25c-.3 0-.5-.1-.6-.2-.2-.1-.3-.5-.5-1l-5.6-18.4c-.2-.5-.3-.9-.3-1.1 0-.4.2-.7.7-.7h2.9c.4 0 .6.1.7.2.2.1.3.5.5 1l4 15.8 3.7-15.8c.1-.5.3-.9.5-1 .2-.1.5-.2.8-.2h2.4c.4 0 .6.1.8.2.2.1.4.5.5 1l3.7 16 4.1-16c.2-.5.3-.9.5-1 .2-.1.4-.2.7-.2h2.7c.4 0 .7.3.7.7 0 .1 0 .3-.1.4l-.2.7-5.7 18.4c-.2.5-.3.9-.5 1-.2.1-.5.2-.6.2h-2.5c-.4 0-.6-.1-.8-.2-.2-.1-.4-.5-.5-1l-3.7-15.5-3.7 15.5c-.1.5-.3.9-.5 1-.2.1-.5.2-.8.2h-2.4zM64.7 25.7c-1.5 0-3-.2-4.4-.6-1.4-.4-2.5-.8-3.2-1.3-.4-.3-.6-.6-.6-.9v-1.5c0-.4.2-.7.5-.7h.3c.2 0 .4.1.6.2.8.4 1.7.7 2.7.9 1 .3 2 .4 3 .4 1.6 0 2.8-.3 3.7-.9.9-.6 1.3-1.4 1.3-2.5 0-.7-.2-1.3-.7-1.8-.5-.5-1.4-.9-2.8-1.4L62 15c-2-.6-3.5-1.5-4.4-2.7-.9-1.2-1.4-2.5-1.4-4 0-1.1.2-2.1.7-3 .5-.9 1.1-1.6 1.9-2.2.8-.6 1.7-1.1 2.8-1.4 1.1-.3 2.2-.5 3.4-.5.6 0 1.2.1 1.8.1.6.1 1.2.2 1.7.3.5.1 1 .3 1.5.5.5.2.8.4 1 .5.4.2.6.4.8.7.1.2.2.5.2.9V5.8c0 .4-.2.7-.5.7-.2 0-.5-.1-.8-.3-1.7-.7-3.5-1.1-5.6-1.1-1.5 0-2.6.3-3.4.8-.8.5-1.2 1.3-1.2 2.3 0 .7.2 1.3.7 1.8.5.5 1.5 1 2.9 1.4l3.1 1c2 .6 3.5 1.5 4.4 2.7.9 1.2 1.3 2.5 1.3 4.1 0 1.1-.2 2.2-.7 3.1-.5.9-1.1 1.7-2 2.3-.9.7-1.9 1.1-3.1 1.5-1.2.3-2.5.5-3.9.5z" fill="#252F3E"/>
  <path d="M67.3 35.5c-7.8 5.8-19.2 8.8-28.9 8.8-13.7 0-26-5-35.3-13.4-.7-.6-.1-1.5.8-1 10 5.8 22.3 9.3 35.1 9.3 8.6 0 18-1.8 26.7-5.5 1.3-.6 2.4.8 1.6 1.8z" fill="#FF9900"/>
  <path d="M70.6 31.7c-1-1.3-6.5-.6-9-.3-.8.1-.9-.6-.2-1.1 4.4-3.1 11.6-2.2 12.4-1.1.9 1.1-.2 8.3-4.3 11.8-.6.5-1.2.2-1-.4.9-2.3 2.9-7.5 2.1-8.9z" fill="#FF9900"/>
</svg>
