<svg xmlns="http://www.w3.org/2000/svg" viewBox="0 0 48 48" width="48" height="48">
  <ellipse cx="24" cy="14" rx="11" ry="13" fill="#333"/>
  <ellipse cx="19" cy="12" rx="3" ry="4" fill="white"/>
  <ellipse cx="29" cy="12" rx="3" ry="4" fill="white"/>
  <circle cx="19" cy="12" r="1.5" fill="#333"/>
  <circle cx="29" cy="12" r="1.5" fill="#333"/>
  <ellipse cx="24" cy="18" rx="5" ry="3" fill="#FFC107"/>
  <path d="M14 25c-3 2-5 8-3 12s5 7 10 7h6c5 0 9-3 10-7s0-10-3-12" fill="#333"/>
  <path d="M10 34c-2 1-3 3-2 5s3 3 5 2" fill="#333" stroke="#333" stroke-width="1"/>
  <path d="M38 34c2 1 3 3 2 5s-3 3-5 2" fill="#333" stroke="#333" stroke-width="1"/>
</svg>
