<svg xmlns="http://www.w3.org/2000/svg" viewBox="0 0 80 48" width="80" height="48">
  <path d="M30.6 21h4.7v4.3h-4.7V21zm5.3 0h4.7v4.3h-4.7V21zm5.3 0h4.7v4.3h-4.7V21zm-10.6-5h4.7v4.3h-4.7V16zm5.3 0h4.7v4.3h-4.7V16zm5.3 0h4.7v4.3h-4.7V16zm5.3 0h4.7v4.3h-4.7V16zm-15.9-5h4.7v4.3h-4.7V11zm5.3 0h4.7v4.3h-4.7V11z" fill="#099CEC"/>
  <path d="M68.6 22.3c-.9-.6-3-.8-4.6-.5-.2-1.7-1.3-3.1-3.2-4.4l-1.1-.7-.7 1.1c-.9 1.4-1.3 3.3-.9 5 .2.7.6 1.5 1 2.1-1.5.8-3.9 1-4.4 1H10c-1 4.2.5 9.3 3.3 12.6 2.5 3 6.2 4.5 10.9 4.5 10.5 0 18.2-4.8 21.8-13.5 1.4.1 4.5.1 6-2.9.1-.1.4-.8.5-1.3l-.1-.1c.4-.1.5-.9.2-1.9z" fill="#099CEC"/>
</svg>
