<svg xmlns="http://www.w3.org/2000/svg" viewBox="0 0 48 48" width="48" height="48">
  <path d="M24 4C14 4 14.8 8.3 14.8 8.3l.1 4.4h9.3v1.3H11.2S4 13.2 4 24c0 10.8 6.2 10.4 6.2 10.4h3.7v-5S13.7 23 20 23h10.3s5.9.1 5.9-5.7V11c0-.1.8-7-12.2-7zM18.7 9.2c1 0 1.8.8 1.8 1.8s-.8 1.8-1.8 1.8c-1 0-1.8-.8-1.8-1.8s.8-1.8 1.8-1.8z" fill="#3776AB"/>
  <path d="M24.1 44.2c10 0 9.2-4.3 9.2-4.3l-.1-4.4H24v-1.3h12.9S44 35 44 24.2C44 13.4 37.8 13.8 37.8 13.8h-3.7v5s.2 6.4-6.1 6.4H17.7s-5.9-.1-5.9 5.7v8.3s-.8 7 12.3 7zm5.3-5.4c-1 0-1.8-.8-1.8-1.8s.8-1.8 1.8-1.8c1 0 1.8.8 1.8 1.8s-.8 1.8-1.8 1.8z" fill="#FFD43B"/>
</svg>
