<svg xmlns="http://www.w3.org/2000/svg" width="512" height="512" viewBox="0 0 512 512">
  <rect width="512" height="512" rx="64" fill="#0a0a0a"/>
  <g transform="translate(96, 96) scale(10)">
    <path d="M3.25 26v.75H7c1.305 0 2.384-.21 3.346-.627.96-.415 1.763-1.02 2.536-1.752.695-.657 1.39-1.443 2.152-2.306l.233-.263c.864-.975 1.843-2.068 3.071-3.266 1.209-1.18 2.881-1.786 4.621-1.786h5.791V5.25H25c-1.305 0-2.384.21-3.346.627-.96.415-1.763 1.02-2.536 1.751-.695.658-1.39 1.444-2.152 2.307l-.233.263c-.864.975-1.843 2.068-3.071 3.266-1.209 1.18-2.881 1.786-4.621 1.786H3.25V26Z" fill="none" stroke="#ffffff" stroke-width="1.5"/>
  </g>
</svg>
